<svg xmlns="http://www.w3.org/2000/svg" width="122.6" height="121.11" viewBox="0 0 122.6 121.11">
  <g id="fav_icon" data-name="fav icon" transform="translate(-236.17 -360.1)">
    <g id="Layer_1">
      <path id="Path_1" data-name="Path 1" d="M355.14,396.86a57.148,57.148,0,0,0-12.94-19.12,62.226,62.226,0,0,0-19.65-12.9,64.268,64.268,0,0,0-24.88-4.74,65.318,65.318,0,0,0-25.03,4.74,59.836,59.836,0,0,0-32.73,32.31,54.491,54.491,0,0,0-3.57,11.66h27.54a24.663,24.663,0,0,1,.92-2.62,36.1,36.1,0,0,1,7.18-11.63,32.467,32.467,0,0,1,11.06-7.85,34.548,34.548,0,0,1,14.28-2.83,34.142,34.142,0,0,1,14.21,2.93,35.721,35.721,0,0,1,11.31,7.92,36.685,36.685,0,0,1,7.35,11.7c.28.78.57,1.59.81,2.37h27.68a55.718,55.718,0,0,0-3.53-11.95Zm-23.82,34.99c-.35,1.13-.74,2.23-1.13,3.32a37.254,37.254,0,0,1-7.18,11.59,32.532,32.532,0,0,1-11.13,7.88,35.211,35.211,0,0,1-39.73-8.02,34.358,34.358,0,0,1-7.35-11.74,23.588,23.588,0,0,1-1.02-3.04H236.17a54.74,54.74,0,0,0,3.68,12.65,58.91,58.91,0,0,0,12.83,19.12,66.224,66.224,0,0,0,69.64,12.83,59.417,59.417,0,0,0,32.7-32.27,57.713,57.713,0,0,0,3.75-12.34H331.34Z" fill="#f5ca6c"/>
    </g>
  </g>
</svg>
