<svg width="11" height="11" viewBox="0 0 11 11" fill="none" xmlns="http://www.w3.org/2000/svg">
<path d="M5.31667 0C4.26513 0 3.23721 0.322569 2.36289 0.926917C1.48857 1.53126 0.807115 2.39025 0.404709 3.39524C0.00230361 4.40023 -0.102984 5.5061 0.102161 6.57299C0.307305 7.63989 0.813668 8.6199 1.55722 9.38908C2.30077 10.1583 3.24811 10.6821 4.27944 10.8943C5.31077 11.1065 6.37977 10.9976 7.35127 10.5813C8.32276 10.1651 9.15311 9.4601 9.73731 8.55563C10.3215 7.65116 10.6333 6.5878 10.6333 5.5C10.6333 4.04131 10.0732 2.64236 9.07612 1.61091C8.07905 0.579462 6.72673 0 5.31667 0ZM6.82912 3.57934C6.82912 3.68283 6.78714 3.72408 6.68921 3.72408C6.50102 3.72408 6.31284 3.72408 6.12536 3.73204C5.93788 3.74 5.83574 3.82829 5.83574 4.03092C5.83154 4.24802 5.83574 4.46079 5.83574 4.68224H6.64094C6.75566 4.68224 6.79484 4.72276 6.79484 4.84217C6.79484 5.13164 6.79484 5.42256 6.79484 5.71493C6.79484 5.83289 6.75846 5.8698 6.64303 5.87052H5.82875V8.22539C5.82875 8.35131 5.79097 8.39112 5.67064 8.39112H4.79479C4.68916 8.39112 4.64789 8.34842 4.64789 8.23914V5.87414H3.95252C3.84339 5.87414 3.80422 5.83289 3.80422 5.71927C3.80422 5.42642 3.80422 5.13381 3.80422 4.84145C3.80422 4.72855 3.84549 4.68585 3.95322 4.68585H4.64789V4.05263C4.63964 3.76819 4.70561 3.48671 4.83887 3.23776C4.97739 2.98643 5.19936 2.79563 5.46357 2.70079C5.63504 2.63625 5.81628 2.6039 5.99874 2.60526H6.68641C6.78505 2.60526 6.82632 2.65013 6.82632 2.75C6.82982 3.02862 6.82982 3.30434 6.82912 3.57934Z" fill="black"/>
</svg>
