<svg width="11" height="22" viewBox="0 0 11 22" fill="none" xmlns="http://www.w3.org/2000/svg">
<path d="M6.44608 11.5627H6.84608H9.60259L9.96561 8.75145H6.84608H6.44608V8.35145V6.04616C6.44608 5.50667 6.51565 4.94144 6.87214 4.51787C7.24166 4.07881 7.83227 3.88863 8.63569 3.88863M6.44608 11.5627L10.5464 4.28784M6.44608 11.5627V11.9627V20.8264M6.44608 11.5627V20.8264M8.63569 3.88863V4.28863L8.63552 3.88863L8.63569 3.88863ZM8.63569 3.88863L10.1464 3.888M10.1464 3.888V4.28784H10.5464M10.1464 3.888V1.41814C9.64398 1.37322 8.75751 1.31638 7.76157 1.31638C6.4644 1.31638 5.41299 1.71091 4.68701 2.42839C3.96227 3.14465 3.51761 4.22649 3.51761 5.6885V8.35145V8.75145H3.11761H0.4V11.5627H3.11761H3.51761V11.9627V20.8264H6.44608M10.1464 3.888L10.5462 3.88784L10.5464 4.28784M10.5464 4.28784L6.44608 20.8264" stroke="black" stroke-width="0.8"/>
</svg>
