<svg width="11" height="11" viewBox="0 0 11 11" fill="none" xmlns="http://www.w3.org/2000/svg">
<path d="M6.55273 5.5C6.55273 6.08142 6.08142 6.55273 5.5 6.55273C4.91858 6.55273 4.44726 6.08142 4.44726 5.5C4.44726 4.91858 4.91858 4.44727 5.5 4.44727C6.08142 4.44727 6.55273 4.91858 6.55273 5.5Z" fill="black"/>
<path d="M7.96197 3.63741C7.91137 3.50028 7.83063 3.37616 7.72573 3.27428C7.62385 3.16937 7.49981 3.08864 7.36259 3.03803C7.25131 2.99481 7.08413 2.94337 6.77622 2.92935C6.44313 2.91416 6.34326 2.91089 5.5 2.91089C4.65665 2.91089 4.55678 2.91408 4.22378 2.92927C3.91586 2.94337 3.7486 2.99481 3.6374 3.03803C3.50019 3.08864 3.37607 3.16937 3.27427 3.27428C3.16936 3.37616 3.08863 3.5002 3.03794 3.63741C2.99472 3.7487 2.94327 3.91595 2.92926 4.22387C2.91407 4.55688 2.9108 4.65675 2.9108 5.50009C2.9108 6.34335 2.91407 6.44322 2.92926 6.77631C2.94327 7.08423 2.99472 7.2514 3.03794 7.36268C3.08863 7.4999 3.16928 7.62394 3.27418 7.72582C3.37607 7.83072 3.50011 7.91146 3.63732 7.96206C3.7486 8.00537 3.91586 8.05681 4.22378 8.07083C4.55678 8.08602 4.65657 8.08921 5.49991 8.08921C6.34334 8.08921 6.44321 8.08602 6.77614 8.07083C7.08405 8.05681 7.25131 8.00537 7.36259 7.96206C7.63803 7.85582 7.85573 7.63812 7.96197 7.36268C8.00519 7.2514 8.05664 7.08423 8.07074 6.77631C8.08593 6.44322 8.08912 6.34335 8.08912 5.50009C8.08912 4.65675 8.08593 4.55688 8.07074 4.22387C8.05672 3.91595 8.00528 3.7487 7.96197 3.63741ZM5.5 7.12174C4.60428 7.12174 3.87818 6.39572 3.87818 5.50001C3.87818 4.60429 4.60428 3.87827 5.5 3.87827C6.39563 3.87827 7.12173 4.60429 7.12173 5.50001C7.12173 6.39572 6.39563 7.12174 5.5 7.12174ZM7.18585 4.19315C6.97654 4.19315 6.80685 4.02346 6.80685 3.81416C6.80685 3.60485 6.97654 3.43516 7.18585 3.43516C7.39515 3.43516 7.56485 3.60485 7.56485 3.81416C7.56476 4.02346 7.39515 4.19315 7.18585 4.19315Z" fill="black"/>
<path d="M5.5 0C2.4629 0 0 2.4629 0 5.5C0 8.5371 2.4629 11 5.5 11C8.5371 11 11 8.5371 11 5.5C11 2.4629 8.5371 0 5.5 0ZM8.63915 6.80207C8.62387 7.13826 8.57042 7.36779 8.49237 7.56871C8.3283 7.99294 7.99294 8.3283 7.56871 8.49237C7.36788 8.57042 7.13826 8.62379 6.80215 8.63915C6.46537 8.65451 6.35778 8.6582 5.50008 8.6582C4.6423 8.6582 4.5348 8.65451 4.19793 8.63915C3.86181 8.62379 3.6322 8.57042 3.43137 8.49237C3.22056 8.41306 3.02972 8.28877 2.87194 8.12806C2.71131 7.97036 2.58702 7.77944 2.50771 7.56871C2.42966 7.36788 2.3762 7.13826 2.36093 6.80215C2.3454 6.46528 2.3418 6.35769 2.3418 5.5C2.3418 4.6423 2.3454 4.53471 2.36085 4.19793C2.37612 3.86173 2.4295 3.6322 2.50754 3.43129C2.58685 3.22056 2.71123 3.02963 2.87194 2.87194C3.02963 2.71123 3.22056 2.58694 3.43129 2.50763C3.6322 2.42958 3.86173 2.3762 4.19793 2.36085C4.53471 2.34549 4.6423 2.3418 5.5 2.3418C6.35769 2.3418 6.46528 2.34549 6.80207 2.36093C7.13826 2.3762 7.36779 2.42958 7.56871 2.50754C7.77944 2.58685 7.97036 2.71123 8.12814 2.87194C8.28877 3.02972 8.41314 3.22056 8.49237 3.43129C8.5705 3.6322 8.62387 3.86173 8.63923 4.19793C8.65459 4.53471 8.6582 4.6423 8.6582 5.5C8.6582 6.35769 8.65459 6.46528 8.63915 6.80207Z" fill="black"/>
</svg>
