<svg width="23" height="23" viewBox="0 0 23 23" fill="none" xmlns="http://www.w3.org/2000/svg">
<g id="g174">
<g id="g176">
<g id="Clip path group">
<mask id="mask0_1_526" style="mask-type:luminance" maskUnits="userSpaceOnUse" x="0" y="0" width="23" height="23">
<g id="clipPath182">
<path id="path180" d="M0.0625 3.8147e-05H22.3181V22.2556H0.0625V3.8147e-05Z" fill="white"/>
</g>
</mask>
<g mask="url(#mask0_1_526)">
<g id="g178">
<g id="g184">
<path id="path186" d="M21.4482 11.1279C21.4461 12.0427 21.4357 12.9576 21.4232 13.8723C21.4081 14.976 21.391 16.0802 21.1142 17.165C20.824 18.3026 20.2515 19.2836 19.3609 20.0099C18.4223 20.7753 17.2879 21.1776 16.0635 21.2521C14.4395 21.3508 12.8149 21.3899 11.1902 21.386C9.56559 21.3899 7.94093 21.3508 6.31701 21.2521C5.09261 21.1776 3.95818 20.7753 3.01962 20.0099C2.12897 19.2836 1.55649 18.3026 1.26622 17.165C0.989412 16.0802 0.972373 14.976 0.957289 13.8723C0.944771 12.9576 0.934381 12.0427 0.932251 11.1279C0.934381 10.213 0.944771 9.29817 0.957289 8.38339C0.972373 7.2797 0.989412 6.17552 1.26622 5.09074C1.55649 3.95318 2.12897 2.97211 3.01962 2.24581C3.95818 1.48042 5.09261 1.07813 6.31701 1.00367C7.94093 0.904907 9.56559 0.865873 11.1902 0.869698C12.8149 0.865873 14.4395 0.904907 16.0635 1.00367C17.2879 1.07813 18.4223 1.48042 19.3609 2.24581C20.2515 2.97211 20.824 3.95318 21.1142 5.09074C21.391 6.17552 21.4081 7.2797 21.4232 8.38339C21.4357 9.29817 21.4461 10.213 21.4482 11.1279Z" stroke="black" stroke-width="0.8" stroke-miterlimit="10"/>
</g>
<g id="g188">
<path id="path190" d="M15.7109 11.1278C15.7109 13.6485 13.6675 15.692 11.1468 15.692C8.62607 15.692 6.58264 13.6485 6.58264 11.1278C6.58264 8.60712 8.62607 6.56369 11.1468 6.56369C13.6675 6.56369 15.7109 8.60712 15.7109 11.1278Z" stroke="black" stroke-width="0.8" stroke-miterlimit="10"/>
</g>
<g id="g192">
<path id="path194" d="M18.3625 5.19676C18.3625 5.64087 18.0024 6.00092 17.5583 6.00092C17.1142 6.00092 16.7542 5.64087 16.7542 5.19676C16.7542 4.75265 17.1142 4.3926 17.5583 4.3926C18.0024 4.3926 18.3625 4.75265 18.3625 5.19676Z" fill="black"/>
</g>
</g>
</g>
</g>
</g>
</g>
</svg>
