<svg width="62" height="62" viewBox="0 0 62 62" fill="none" xmlns="http://www.w3.org/2000/svg">
<g id="previous 1" clip-path="url(#clip0_1_347)">
<g id="Group">
<g id="Group_2">
<path id="Vector" d="M31 0C13.906 0 0 13.906 0 31C0 48.094 13.906 62 31 62C48.094 62 62 48.094 62 31C62 13.906 48.094 0 31 0ZM37.993 42.0903C39.0031 43.1003 39.0031 44.733 37.993 45.743C37.4893 46.2468 36.828 46.5 36.1666 46.5C35.5053 46.5 34.8439 46.2468 34.3401 45.743L21.4235 32.8265C20.4135 31.8164 20.4135 30.1837 21.4235 29.1737L34.3403 16.257C35.3503 15.2469 36.983 15.2469 37.993 16.257C39.0031 17.267 39.0031 18.8997 37.993 19.9097L26.9028 31L37.993 42.0903Z" fill="#F7CB6A"/>
</g>
</g>
</g>
<defs>
<clipPath id="clip0_1_347">
<rect width="62" height="62" fill="white"/>
</clipPath>
</defs>
</svg>
