<svg width="19" height="23" viewBox="0 0 19 23" fill="none" xmlns="http://www.w3.org/2000/svg">
<g id="Group">
<path id="Vector" d="M18.5999 6.64005C17.4422 6.56309 16.3767 6.14604 15.5041 5.4879C14.3928 4.65 13.5934 3.42034 13.311 2.00192C13.2663 1.77749 13.2348 1.54876 13.217 1.31638H10.5199V10.4255V10.4258L10.5157 15.6341L18.5999 6.64005ZM18.5999 6.64005V7.18979V9.30765C17.6026 9.26177 16.634 9.04258 15.7141 8.65445C15.0436 8.37136 14.4194 8.00685 13.8484 7.56642L13.2022 7.06792L13.2041 7.88405L13.222 15.6607C13.2147 17.3048 12.565 18.8484 11.3863 20.0133L11.3863 20.0133C10.4263 20.9623 9.21108 21.5651 7.8933 21.7603C7.58325 21.8062 7.26763 21.8298 6.94837 21.8298C5.53544 21.8298 4.19674 21.3724 3.10191 20.5299C2.89576 20.3711 2.69847 20.199 2.51042 20.0133C1.23301 18.7508 0.575628 17.0426 0.686465 15.2431L18.5999 6.64005ZM8.07737 19.0024L8.07735 19.0024C7.66656 19.1381 7.22263 19.2024 6.76093 19.1771L6.76091 19.1771C6.17022 19.1446 5.61684 18.9663 5.13662 18.679C4.1161 18.0686 3.42118 16.9595 3.40233 15.6876L8.07737 19.0024ZM8.07737 19.0024C9.49253 18.5349 10.5156 17.2052 10.5157 15.6344L8.07737 19.0024ZM2.23246 11.5466L2.23243 11.5466C1.31873 12.5699 0.770962 13.8753 0.686469 15.243L2.23246 11.5466ZM2.23246 11.5466C3.4436 10.1899 5.13595 9.43758 6.94837 9.43758C7.15105 9.43758 7.35239 9.44724 7.5519 9.46609V10.0461V12.1351C7.35913 12.1026 7.16102 12.0855 6.95879 12.0855C4.97756 12.0855 3.37274 13.7023 3.40233 15.6876L2.23246 11.5466ZM18.5999 6.25111V6.25213V6.25111Z" stroke="black" stroke-width="0.8"/>
</g>
</svg>
