<svg width="11" height="11" viewBox="0 0 11 11" fill="none" xmlns="http://www.w3.org/2000/svg">
<path d="M5.5 0C2.4629 0 0 2.4629 0 5.5C0 8.5371 2.4629 11 5.5 11C8.5371 11 11 8.5371 11 5.5C11 2.4629 8.5371 0 5.5 0ZM8.25924 4.20821V4.95292C7.90808 4.95305 7.56688 4.88424 7.24509 4.74848C7.03817 4.66112 6.84539 4.54856 6.66907 4.41255L6.67436 6.70478C6.67214 7.22094 6.46794 7.70591 6.09834 8.07121C5.79756 8.36855 5.41643 8.55764 5.00332 8.61884C4.90626 8.63322 4.80747 8.64059 4.70757 8.64059C4.26536 8.64059 3.84553 8.49733 3.5021 8.23303C3.43748 8.18327 3.37567 8.12932 3.31682 8.07121C2.91627 7.67531 2.70972 7.13876 2.7445 6.5743C2.77103 6.14464 2.94306 5.73487 3.22983 5.4137C3.60925 4.98869 4.14004 4.75279 4.70757 4.75279C4.80747 4.75279 4.90626 4.76029 5.00332 4.77467V5.05001V5.81597C4.91129 5.78561 4.81299 5.76892 4.71064 5.76892C4.19214 5.76892 3.77266 6.19195 3.78041 6.71084C3.78533 7.04284 3.96668 7.33305 4.23416 7.49302C4.35987 7.56821 4.50448 7.61479 4.6588 7.62326C4.77971 7.6299 4.89582 7.61305 5.00332 7.57756C5.37378 7.45519 5.64102 7.10722 5.64102 6.69683L5.64225 5.16184V2.35941H6.66783C6.66881 2.46104 6.67913 2.56019 6.69829 2.65626C6.7757 3.04515 6.9949 3.38254 7.29998 3.61255C7.566 3.8132 7.89725 3.93213 8.25627 3.93213L8.25922 3.9319L8.25924 4.20821Z" fill="black"/>
</svg>
