<svg width="19" height="23" viewBox="0 0 19 23" fill="none" xmlns="http://www.w3.org/2000/svg">
<path d="M18.5999 6.64005C17.4422 6.56309 16.3767 6.14604 15.5042 5.4879C14.3928 4.65 13.5935 3.42034 13.3111 2.00192C13.2663 1.77749 13.2348 1.54876 13.217 1.31638H10.5199V10.4255V10.4258L10.5158 15.6341L18.5999 6.64005ZM18.5999 6.64005V7.18979V9.30765C17.6026 9.26177 16.6341 9.04258 15.7142 8.65445C15.0437 8.37136 14.4194 8.00685 13.8485 7.56642L13.2023 7.06792L13.2042 7.88405L13.2221 15.6607C13.2147 17.3048 12.565 18.8484 11.3864 20.0133L11.3863 20.0133C10.4264 20.9623 9.21114 21.5651 7.89336 21.7603C7.58331 21.8062 7.26769 21.8298 6.94843 21.8298C5.5355 21.8298 4.1968 21.3724 3.10198 20.5299C2.89582 20.3711 2.69853 20.199 2.51048 20.0133C1.23307 18.7508 0.57569 17.0426 0.686526 15.2431L18.5999 6.64005ZM8.07743 19.0024L8.07741 19.0024C7.66662 19.1381 7.22269 19.2024 6.76099 19.1771L6.76097 19.1771C6.17028 19.1446 5.6169 18.9663 5.13668 18.679C4.11616 18.0686 3.42124 16.9595 3.40239 15.6876L8.07743 19.0024ZM8.07743 19.0024C9.49259 18.5349 10.5156 17.2052 10.5158 15.6344L8.07743 19.0024ZM2.23252 11.5466L2.2325 11.5466C1.31879 12.5699 0.771023 13.8753 0.68653 15.243L2.23252 11.5466ZM2.23252 11.5466C3.44367 10.1899 5.13601 9.43758 6.94843 9.43758C7.15111 9.43758 7.35245 9.44724 7.55196 9.46609V10.0461V12.1351C7.35919 12.1026 7.16108 12.0855 6.95885 12.0855C4.97762 12.0855 3.3728 13.7023 3.40239 15.6876L2.23252 11.5466ZM18.5999 6.25111V6.25213V6.25111Z" stroke="black" stroke-width="0.8"/>
</svg>
